<svg width="330" height="59" viewBox="0 0 330 59" fill="none" xmlns="http://www.w3.org/2000/svg">
<path d="M7.99766 12.988H9.32966C10.7217 12.988 11.7897 12.7 12.5337 12.124C13.2777 11.548 13.6497 10.72 13.6497 9.64C13.6497 8.56 13.2777 7.732 12.5337 7.156C11.7897 6.58 10.7217 6.292 9.32966 6.292H7.99766V12.988ZM23.5137 28H14.7297L7.99766 17.56V28H0.941656V0.856H11.9217C13.4337 0.856 14.7537 1.084 15.8817 1.54C17.0097 1.972 17.9337 2.572 18.6537 3.34C19.3977 4.108 19.9497 4.996 20.3097 6.004C20.6937 7.012 20.8857 8.092 20.8857 9.244C20.8857 11.308 20.3817 12.988 19.3737 14.284C18.3897 15.556 16.9257 16.42 14.9817 16.876L23.5137 28ZM41.2251 17.92L38.0571 8.884L34.8891 17.92H41.2251ZM43.0971 23.284H33.0171L31.3971 28H23.8731L34.2051 0.856H41.9091L52.2411 28H44.7171L43.0971 23.284ZM53.0848 14.428C53.0848 12.412 53.4568 10.54 54.2008 8.812C54.9448 7.06 55.9768 5.536 57.2968 4.24C58.6168 2.944 60.1888 1.936 62.0128 1.216C63.8608 0.471999 65.8888 0.0999987 68.0968 0.0999987C70.2808 0.0999987 72.2968 0.471999 74.1448 1.216C75.9928 1.936 77.5768 2.944 78.8968 4.24C80.2408 5.536 81.2848 7.06 82.0288 8.812C82.7728 10.54 83.1448 12.412 83.1448 14.428C83.1448 16.3 82.8328 18.04 82.2088 19.648C81.6088 21.256 80.7328 22.684 79.5808 23.932L84.1888 28.756L77.7088 29.764L75.2248 27.208C74.1688 27.688 73.0408 28.06 71.8408 28.324C70.6648 28.612 69.4168 28.756 68.0968 28.756C65.8888 28.756 63.8608 28.396 62.0128 27.676C60.1888 26.932 58.6168 25.912 57.2968 24.616C55.9768 23.32 54.9448 21.808 54.2008 20.08C53.4568 18.328 53.0848 16.444 53.0848 14.428ZM60.4648 14.428C60.4648 15.508 60.6688 16.504 61.0768 17.416C61.4848 18.328 62.0368 19.12 62.7328 19.792C63.4288 20.464 64.2328 20.992 65.1448 21.376C66.0808 21.736 67.0648 21.916 68.0968 21.916C68.7208 21.916 69.3448 21.844 69.9688 21.7L65.9368 17.452L72.5968 16.624L74.4688 18.604C75.3328 17.404 75.7648 16.012 75.7648 14.428C75.7648 13.348 75.5608 12.352 75.1528 11.44C74.7448 10.528 74.1808 9.736 73.4608 9.064C72.7648 8.392 71.9488 7.876 71.0128 7.516C70.1008 7.132 69.1288 6.94 68.0968 6.94C67.0648 6.94 66.0808 7.132 65.1448 7.516C64.2328 7.876 63.4288 8.392 62.7328 9.064C62.0368 9.736 61.4848 10.528 61.0768 11.44C60.6688 12.352 60.4648 13.348 60.4648 14.428ZM94.6578 0.856V15.616C94.6578 16.408 94.6818 17.224 94.7298 18.064C94.8018 18.88 94.9818 19.624 95.2698 20.296C95.5818 20.968 96.0618 21.52 96.7098 21.952C97.3578 22.36 98.2698 22.564 99.4458 22.564C100.622 22.564 101.522 22.36 102.146 21.952C102.794 21.52 103.274 20.968 103.586 20.296C103.898 19.624 104.078 18.88 104.126 18.064C104.198 17.224 104.234 16.408 104.234 15.616V0.856H111.254V16.588C111.254 20.812 110.282 23.896 108.338 25.84C106.418 27.784 103.454 28.756 99.4458 28.756C95.4378 28.756 92.4618 27.784 90.5178 25.84C88.5738 23.896 87.6018 20.812 87.6018 16.588V0.856H94.6578ZM132.401 6.832H124.013V11.368H131.933V17.344H124.013V22.024H132.401V28H116.957V0.856H132.401V6.832ZM144.545 0.856V22.024H153.005V28H137.489V0.856H144.545ZM175.939 13.312H178.279C180.871 13.312 182.167 12.184 182.167 9.928C182.167 7.672 180.871 6.544 178.279 6.544H175.939V13.312ZM175.939 28H168.883V0.856H180.115C183.163 0.856 185.491 1.648 187.099 3.232C188.731 4.816 189.547 7.048 189.547 9.928C189.547 12.808 188.731 15.04 187.099 16.624C185.491 18.208 183.163 19 180.115 19H175.939V28ZM208.726 6.832H200.338V11.368H208.258V17.344H200.338V22.024H208.726V28H193.282V0.856H208.726V6.832ZM220.869 12.988H222.201C223.593 12.988 224.661 12.7 225.405 12.124C226.149 11.548 226.521 10.72 226.521 9.64C226.521 8.56 226.149 7.732 225.405 7.156C224.661 6.58 223.593 6.292 222.201 6.292H220.869V12.988ZM236.385 28H227.601L220.869 17.56V28H213.813V0.856H224.793C226.305 0.856 227.625 1.084 228.753 1.54C229.881 1.972 230.805 2.572 231.525 3.34C232.269 4.108 232.821 4.996 233.181 6.004C233.565 7.012 233.757 8.092 233.757 9.244C233.757 11.308 233.253 12.988 232.245 14.284C231.261 15.556 229.797 16.42 227.853 16.876L236.385 28ZM254.096 17.92L250.928 8.884L247.76 17.92H254.096ZM255.968 23.284H245.888L244.268 28H236.744L247.076 0.856H254.78L265.112 28H257.588L255.968 23.284ZM275.255 0.856V22.024H283.715V28H268.199V0.856H275.255ZM296.214 6.832V28H289.158V6.832H283.362V0.856H302.01V6.832H296.214ZM318.643 17.92L315.475 8.884L312.307 17.92H318.643ZM320.515 23.284H310.435L308.815 28H301.291L311.623 0.856H319.327L329.659 28H322.135L320.515 23.284ZM102.828 39.9062H105.266V58H102.828V39.9062ZM108.055 39.9062H110.328L112.754 47.125C113.457 49.1641 114.078 51.3398 114.617 53.6523C114.422 52.2539 114.277 50.9883 114.184 49.8555C114.09 48.7227 114.043 47.6562 114.043 46.6562V39.9062H116.492V58H114.207L111.477 49.8555C111.227 49.0977 110.988 48.3203 110.762 47.5234C110.543 46.7266 110.34 45.8906 110.152 45.0156C110.137 44.9062 110.109 44.7734 110.07 44.6172C110.039 44.4609 110 44.2812 109.953 44.0781C109.977 44.2812 109.996 44.457 110.012 44.6055C110.027 44.7461 110.039 44.8672 110.047 44.9688L110.176 46.8086L110.305 49.0469C110.312 49.1719 110.316 49.3242 110.316 49.5039C110.324 49.6836 110.328 49.8867 110.328 50.1133L110.457 58H108.055V39.9062ZM117.84 39.9062H125.773V42.0391H123.043V58H120.652V42.0391H117.84V39.9062ZM127.133 39.9062H133.613V41.9688H129.57V47.6992H133.156V49.7617H129.57V55.9375H133.613V58H127.133V39.9062ZM140.188 48.4844H144.617V49.1875C144.617 52.7109 144.309 55.0898 143.691 56.3242C143.082 57.5898 141.941 58.2227 140.27 58.2227C138.543 58.2227 137.312 57.5195 136.578 56.1133C135.852 54.707 135.488 52.3438 135.488 49.0234C135.488 45.2266 135.887 42.6992 136.684 41.4414C137.434 40.2617 138.586 39.6719 140.141 39.6719C141.328 39.6719 142.254 39.957 142.918 40.5273C143.59 41.1055 144.113 42.0547 144.488 43.375L142.215 44.3242C142.113 43.8477 142 43.4492 141.875 43.1289C141.75 42.8008 141.613 42.5469 141.465 42.3672C141.168 42 140.723 41.8164 140.129 41.8164C139.316 41.8164 138.762 42.3164 138.465 43.3164C138.168 44.3633 138.02 46.2422 138.02 48.9531C138.02 51.6953 138.172 53.5508 138.477 54.5195C138.781 55.4883 139.355 55.9727 140.199 55.9727C140.973 55.9727 141.516 55.6289 141.828 54.9414C142.148 54.207 142.309 53.0273 142.309 51.4023V50.9102V50.5469H140.188V48.4844ZM147.055 39.9062H150.266C151.594 39.9062 152.582 40.2227 153.23 40.8555C154.051 41.6758 154.461 42.9297 154.461 44.6172C154.461 45.9141 154.242 46.957 153.805 47.7461C153.375 48.5273 152.758 49.0117 151.953 49.1992L155.281 58H152.809L149.492 49.1406V58H147.055V39.9062ZM149.492 47.9219C150.438 47.9219 151.105 47.7031 151.496 47.2656C151.887 46.8281 152.082 46.0898 152.082 45.0508C152.082 44.4883 152.039 44.0078 151.953 43.6094C151.875 43.2109 151.746 42.8867 151.566 42.6367C151.395 42.3867 151.168 42.2031 150.887 42.0859C150.613 41.9688 150.285 41.9102 149.902 41.9102H149.492V47.9219ZM159.758 39.9062H161.656L165.535 58H163.121L162.441 54.4727H158.855L158.164 58H155.82L159.758 39.9062ZM162.09 52.5859L161.551 49.7031C161.191 47.7422 160.898 45.6484 160.672 43.4219C160.562 44.5078 160.422 45.6094 160.25 46.7266C160.078 47.8359 159.875 49.0156 159.641 50.2656L159.195 52.5859H162.09ZM166.977 39.9062H169.414V55.9375H173.398V58H166.977V39.9062ZM185.926 40.2812V42.6602C185.184 42.1289 184.516 41.8633 183.922 41.8633C183.281 41.8633 182.758 42.0898 182.352 42.543C181.945 42.9727 181.742 43.5469 181.742 44.2656C181.742 44.8984 181.887 45.4414 182.176 45.8945C182.324 46.1367 182.566 46.4492 182.902 46.832C183.246 47.2148 183.688 47.6758 184.227 48.2148C185.219 49.2227 185.895 50.0938 186.254 50.8281C186.613 51.5391 186.793 52.4102 186.793 53.4414C186.793 54.8398 186.398 55.9922 185.609 56.8984C184.82 57.7812 183.809 58.2227 182.574 58.2227C181.535 58.2227 180.648 57.9375 179.914 57.3672V54.9531C180.781 55.5859 181.57 55.9023 182.281 55.9023C182.945 55.9023 183.465 55.6836 183.84 55.2461C184.215 54.8008 184.402 54.1992 184.402 53.4414C184.402 52.7852 184.258 52.1953 183.969 51.6719C183.82 51.4219 183.613 51.1367 183.348 50.8164C183.082 50.4883 182.75 50.125 182.352 49.7266C181.734 49.1172 181.223 48.5781 180.816 48.1094C180.41 47.6406 180.109 47.2305 179.914 46.8789C179.539 46.1914 179.352 45.3242 179.352 44.2773C179.352 42.8633 179.719 41.7422 180.453 40.9141C181.195 40.0781 182.191 39.6602 183.441 39.6602C184.309 39.6602 185.137 39.8672 185.926 40.2812ZM187.707 39.9062H195.641V42.0391H192.91V58H190.52V42.0391H187.707V39.9062ZM197 39.9062H203.48V41.9688H199.438V47.6992H203.023V49.7617H199.438V55.9375H203.48V58H197V39.9062ZM204.277 39.9062H212.211V42.0391H209.48V58H207.09V42.0391H204.277V39.9062ZM213.57 39.9062H216.008V58H213.57V39.9062ZM225.898 40.1992V42.3906C225.273 42.0859 224.75 41.9336 224.328 41.9336C223.75 41.9336 223.254 42.0781 222.84 42.3672C222.426 42.6484 222.082 43.0859 221.809 43.6797C221.543 44.2734 221.344 45.0273 221.211 45.9414C221.086 46.8477 221.023 47.9219 221.023 49.1641C221.023 53.6328 222.168 55.8672 224.457 55.8672C224.855 55.8672 225.336 55.7422 225.898 55.4922V57.7305C225.312 58.0586 224.656 58.2227 223.93 58.2227C220.266 58.2227 218.434 55.2305 218.434 49.2461C218.434 46.0117 218.879 43.6055 219.77 42.0273C220.668 40.4492 222.039 39.6602 223.883 39.6602C224.562 39.6602 225.234 39.8398 225.898 40.1992Z" fill="black"/>
</svg>
